<svg width="318" height="104" viewBox="0 0 318 104" fill="none" xmlns="http://www.w3.org/2000/svg">
<g clipPath="url(#clip0_440_210)">
<mask id="mask0_440_210" style="mask-type:luminance" maskUnits="userSpaceOnUse" x="33" y="25" width="252" height="45">
<path d="M285 25.7959H33V69.9978H285V25.7959Z" fill="white"/>
</mask>
<g mask="url(#mask0_440_210)">
<path fillRule="evenodd" clipRule="evenodd" d="M65.5253 55.2975C65.5253 58.9492 64.2402 61.9281 61.5709 64.1385C58.9016 66.3486 55.4416 67.502 51.0916 67.502H33V25.7959H49.9053C58.5062 25.7959 64.0424 30.3124 64.0424 37.6158C64.0424 41.1713 62.6585 43.862 60.0881 45.8801C63.7459 47.9943 65.5253 51.0692 65.5253 55.2975ZM43.9736 35.3094V41.844H49.6087C51.5859 41.844 53.0689 40.6909 53.0689 38.5767C53.0689 36.6548 51.5859 35.3094 49.6087 35.3094H43.9736ZM50.7951 57.9884C52.97 57.9884 54.5519 56.5468 54.5519 54.4327C54.5519 52.3185 53.0689 50.8772 50.7951 50.8772H43.9736V57.8922H50.7951V57.9884ZM79.1683 56.2585C80.2557 58.6609 82.4307 59.9103 85.9896 59.9103C88.1647 59.9103 90.043 59.2375 91.5261 57.7962L98.8416 62.7932C95.8759 66.4449 91.4271 68.3667 85.6932 68.3667C80.4535 68.3667 76.3015 66.9251 73.2365 63.9462C70.073 60.9673 68.5903 57.2196 68.5903 52.7031C68.5903 48.2825 70.073 44.4386 73.1376 41.4597C76.2026 38.3846 80.1571 36.9431 84.8033 36.9431C89.351 36.9431 93.1077 38.3846 96.1723 41.3636C99.1383 44.3426 100.621 48.0904 100.621 52.6069C100.621 53.9523 100.522 55.2016 100.226 56.2585H79.1683ZM90.834 49.4356C90.043 46.6489 88.0658 45.3035 85.1001 45.3035C81.9365 45.3035 79.9593 46.6489 79.0694 49.4356H90.834ZM118.812 47.2254H125.139V37.7118H118.812V29.3514L108.629 32.3304V37.8079H104.081V47.3215H108.629V56.1624C108.629 60.871 109.815 64.1385 112.287 65.964C114.758 67.7902 119.108 68.2704 125.139 67.5979V58.6609C120.591 58.8529 118.812 58.4687 118.812 55.874V47.2254Z" fill="#62547B"/>
<path fillRule="evenodd" clipRule="evenodd" d="M159.245 64.1385C161.915 61.9281 163.2 58.9492 163.2 55.2975C163.2 51.0692 161.42 47.9943 157.861 45.8801C160.432 43.862 161.816 41.1713 161.816 37.6158C161.816 30.3124 156.28 25.7959 147.679 25.7959H130.773V67.502H148.766C153.116 67.502 156.576 66.3486 159.245 64.1385ZM141.747 41.844V35.3094H147.382C149.359 35.3094 150.842 36.6548 150.842 38.5767C150.842 40.6909 149.359 41.844 147.382 41.844H141.747ZM152.226 54.4327C152.226 56.5468 150.644 57.9884 148.469 57.9884V57.8922H141.747V50.8772H148.469C150.743 50.8772 152.226 52.3185 152.226 54.4327ZM166.363 52.6067C166.363 57.0273 167.945 60.7751 171.109 63.8499C174.272 66.8291 178.128 68.3667 182.675 68.3667C187.223 68.3667 191.079 66.9251 194.242 63.8499C197.406 60.7751 198.988 57.0273 198.988 52.6067C198.988 48.1864 197.406 44.5347 194.242 41.4596C191.178 38.3845 187.223 36.847 182.675 36.847C178.128 36.847 174.272 38.3845 171.109 41.4596C167.945 44.5347 166.363 48.1864 166.363 52.6067ZM182.675 46.4566C186.333 46.4566 188.904 48.9551 188.904 52.6067C188.904 56.2585 186.333 58.7569 182.675 58.7569C179.215 58.7569 176.546 56.2585 176.546 52.6067C176.546 49.0512 179.215 46.4566 182.675 46.4566ZM206.897 63.8499C203.733 60.7751 202.151 57.0273 202.151 52.6067C202.151 48.1864 203.733 44.5347 206.897 41.4596C210.06 38.3845 213.916 36.847 218.463 36.847C223.011 36.847 226.966 38.3845 230.03 41.4596C233.194 44.5347 234.776 48.1864 234.776 52.6067C234.776 57.0273 233.194 60.7751 230.03 63.8499C226.867 66.9251 223.011 68.3667 218.463 68.3667C213.916 68.3667 210.06 66.8291 206.897 63.8499ZM224.593 52.6067C224.593 48.9551 222.023 46.4566 218.365 46.4566C214.905 46.4566 212.235 49.0512 212.235 52.6067C212.235 56.2585 214.905 58.7569 218.365 58.7569C222.023 58.7569 224.593 56.2585 224.593 52.6067ZM284.998 67.502V49.2435C284.998 41.5557 280.549 36.847 273.43 36.847C269.574 36.847 266.708 38.0962 264.533 40.6909C262.852 38.0962 260.184 36.847 256.722 36.847C253.066 36.847 250.297 38.0962 248.42 40.4987V37.7119H238.236V67.502H248.42V51.2615C248.42 48.1864 249.901 46.2645 252.67 46.2645C255.241 46.2645 256.526 47.6097 256.526 50.3966V67.502H266.708V51.2615C266.708 48.1864 268.191 46.2645 270.959 46.2645C273.43 46.2645 274.717 47.6097 274.717 50.3966V67.502H284.998Z" fill="#62547B"/>
</g>
</g>
<defs>
<clipPath id="clip0_440_210">
<rect width="252" height="53.6737" fill="white" transform="translate(33 25.7959)"/>
</clipPath>
</defs>
</svg>
