<svg width="318" height="104" viewBox="0 0 318 104" fill="none" xmlns="http://www.w3.org/2000/svg">
<g clipPath="url(#clip0_440_223)">
<path d="M99.0736 55.1298H78.9523V49.2926H103.268V41.2324H67.2969V71.2501H78.9523V63.1901H99.0736V55.1298Z" fill="#62547B"/>
<path d="M162.974 61.2185L152.305 41.2324H138.93L156.248 71.2501H169.527L186.846 41.2324H173.645L162.974 61.2185Z" fill="#62547B"/>
<path d="M224.209 56.0574C225.508 55.5444 226.628 54.657 227.422 53.5077C228.217 52.3583 228.652 50.9989 228.674 49.6015C228.674 44.6726 224.518 41.29 216.343 41.29H189.996V71.2885H216.941C225.717 71.2885 229.62 67.8092 229.62 62.8031C229.62 59.9231 227.92 57.4104 224.209 56.0574ZM201.342 48.4804H214.37C214.686 48.4512 215.004 48.4883 215.306 48.5891C215.607 48.69 215.883 48.8525 216.116 49.0662C216.351 49.28 216.538 49.5402 216.667 49.8304C216.795 50.1205 216.861 50.4344 216.861 50.7516C216.861 51.0688 216.795 51.3825 216.667 51.6727C216.538 51.9629 216.351 52.2231 216.116 52.4368C215.883 52.6507 215.607 52.8131 215.306 52.914C215.004 53.0149 214.686 53.0518 214.37 53.0226H201.342V48.4804ZM215.299 64.0788H201.342V59.5364H215.318C215.646 59.4837 215.982 59.5032 216.303 59.5929C216.623 59.6828 216.921 59.8412 217.173 60.0573C217.427 60.2732 217.63 60.5415 217.77 60.8438C217.909 61.1459 217.982 61.4748 217.982 61.8076C217.982 62.1406 217.909 62.4693 217.77 62.7716C217.63 63.0738 217.427 63.3422 217.173 63.5581C216.921 63.774 216.623 63.9324 216.303 64.0223C215.982 64.1122 215.646 64.1315 215.318 64.0788H215.299Z" fill="#62547B"/>
<path d="M246.823 59.4982H266.887V52.9843H246.823V49.2926H269.012V41.2324H235.148V71.2501H269.535V63.1901H246.823V59.4982Z" fill="#62547B"/>
<path d="M274.348 41.2324V49.2926H287.433V71.2501H299.223V49.2926H312.309V41.2324H274.348Z" fill="#62547B"/>
<path d="M116.835 41.251L99.4395 71.2494H111.829L114.168 66.8231H132.685L135.024 71.2494H147.916L130.52 41.251H116.835ZM118.382 59.0336L123.504 49.3691L128.626 59.0336H118.382Z" fill="#62547B"/>
<path d="M5 53.0039L15.3409 71.2504H28.6198L18.2596 53.0039H5Z" fill="#62547B"/>
<path d="M38.9622 53.0039L28.6211 71.2504H41.8807L52.2216 53.0039H38.9622Z" fill="#62547B"/>
<path d="M28.6201 34.7959L18.2598 53.0037H38.961L28.6201 34.7959Z" fill="#62547B"/>
</g>
<defs>
<clipPath id="clip0_440_223">
<rect width="308" height="36.4929" fill="white" transform="translate(5 34.7959)"/>
</clipPath>
</defs>
</svg>
