<svg width="318" height="104" viewBox="0 0 318 104" fill="none" xmlns="http://www.w3.org/2000/svg">
<path fill-rule="evenodd" clip-rule="evenodd" d="M239.811 46.3559C239.721 39.2681 234.238 33.4826 227.267 32.8563C226.997 32.8165 226.717 32.7966 226.448 32.7966H195.675C192.439 32.7966 189.782 35.4409 189.782 38.6617V66.6949C189.782 69.9157 192.439 72.5599 195.675 72.5599H224.959C225.099 72.5599 225.239 72.55 225.379 72.55C225.589 72.55 225.798 72.5599 226.008 72.5599C233.629 72.5599 239.821 66.4066 239.821 58.8118C239.821 58.613 239.811 58.4142 239.801 58.2153C239.811 58.0861 239.821 57.9569 239.821 57.8276V46.515C239.821 46.4653 239.811 46.4056 239.811 46.3559ZM157.531 35.3912L137.805 63.4343C135.937 66.0785 136.597 69.7566 139.243 71.6056C141.9 73.4546 145.596 72.8085 147.463 70.1642L150.11 66.3867H174.68L177.337 70.1642C179.195 72.8085 182.89 73.4546 185.547 71.6056C188.204 69.7566 188.853 66.0785 186.995 63.4343L167.269 35.3912C166.101 33.7311 164.213 32.8662 162.315 32.8961C160.478 32.9159 158.66 33.7808 157.531 35.3912ZM157.461 55.9488L162.395 48.9306L167.339 55.9488H157.461ZM260.466 35.2918L240.74 63.3349C238.883 65.9791 239.532 69.6572 242.188 71.5062C244.845 73.3552 248.541 72.7091 250.399 70.0648L253.055 66.2873H277.626L280.272 70.0648C282.14 72.7091 285.836 73.3552 288.492 71.5062C291.149 69.6572 291.798 65.9791 289.941 63.3349L270.215 35.2918C269.046 33.6317 267.158 32.7668 265.261 32.7966C263.413 32.8165 261.605 33.6814 260.466 35.2918ZM260.396 55.8494L265.34 48.8312L270.284 55.8494H260.396ZM83.6807 35.2918L63.9547 63.3349C62.0969 65.9791 62.7461 69.6572 65.4029 71.5062C68.0597 73.3552 71.7552 72.7091 73.6129 70.0648L76.2697 66.2873H100.83L103.487 70.0648C105.344 72.7091 109.04 73.3552 111.697 71.5062C114.354 69.6572 115.013 65.9791 113.145 63.3349L93.4189 35.2918C92.2603 33.6317 90.3726 32.7668 88.4749 32.7966C86.6272 32.8165 84.8194 33.6814 83.6807 35.2918ZM83.6108 55.8494L88.5548 48.8312L93.4888 55.8494H83.6108ZM130.374 70.1642L150.1 42.1211C151.958 39.4769 151.309 35.7988 148.652 33.9498C145.995 32.1008 142.3 32.7469 140.442 35.3912L125.5 56.6248L110.568 35.3912C108.71 32.7469 105.015 32.1008 102.358 33.9498C99.7013 35.7988 99.0521 39.4769 100.91 42.1211L120.636 70.1642C121.805 71.8243 123.682 72.6892 125.58 72.6594C127.428 72.6395 129.245 71.7746 130.374 70.1642ZM56.5337 70.0648L76.2597 42.0217C78.1175 39.3775 77.4683 35.6994 74.8115 33.8504C72.1547 32.0014 68.4592 32.6475 66.6015 35.2918L51.6596 56.5254L36.7277 35.2918C34.86 32.6475 31.1644 32.0014 28.5077 33.8504C25.8509 35.6994 25.2017 39.3775 27.0594 42.0217L46.7855 70.0648C47.9541 71.7249 49.8418 72.5898 51.7395 72.5599C53.5872 72.5401 55.395 71.6752 56.5337 70.0648ZM226.178 42.7375H199.77V62.6191H224.82L225.249 62.5893L225.818 62.6191H226.008C228.116 62.6191 229.833 60.9192 229.833 58.8118C229.833 58.7521 229.823 58.7024 229.823 58.6428L229.804 58.096L229.833 57.6885V46.5746C229.823 46.5448 229.823 46.515 229.823 46.4951C229.804 44.5566 228.305 42.9263 226.368 42.7574L226.178 42.7375Z" fill="#62547B"/>
</svg>
