<svg width="318" height="104" viewBox="0 0 318 104" fill="none" xmlns="http://www.w3.org/2000/svg">
<g clipPath="url(#clip0_440_476)">
<path d="M175.703 43.1959C177.66 35.3163 172.888 28.7959 161.196 28.7959H135.855L126.361 67.3335L131.872 76.8131H149.899C161.711 76.8131 170.862 71.2905 173.214 61.6905C174.398 56.7701 173.025 53.3292 169.935 51.6088V51.4884C172.865 49.586 174.936 46.6094 175.703 43.1959ZM160.252 61.3808C159.771 63.3937 158.415 65.4583 152.801 65.4583H141.298L143.307 57.2002H154.758C160.303 57.183 160.715 59.2991 160.183 61.3808H160.252ZM162.552 43.454C162.14 45.0024 160.956 46.8948 156.114 46.8948H145.813L147.53 40.1851H157.831C162.724 40.1507 162.964 41.7335 162.552 43.454Z" fill="#62547B"/>
<path d="M191.652 58.2153H214.726L217.353 46.8604H194.433L196.218 40.1507H218.915L221.542 28.7959H184.286L172.475 76.7959H214.675L217.439 65.4411H189.952L191.652 58.2153Z" fill="#62547B"/>
<path d="M224.771 28.7959L222.127 40.1507H235.913L226.865 76.7959H241.338L250.403 40.1507H265.168L268.001 28.7959H224.771Z" fill="#62547B"/>
<path d="M64.1425 76.7959H49.5494L55.8674 51.1615L57.3267 47.2905L53.4638 51.1615L49.1717 55.5142L49 42.7142L64.1425 28.7959H75.9372L64.1425 76.7959Z" fill="#62547B"/>
<path d="M116.833 56.9077L112.181 49.011L134.757 28.7959H113.726L105.141 37.054L76.0239 63.8067L62.0488 76.7959H81.947L96.9007 63.4282L101.931 72.0303C103.648 74.198 106.069 76.8303 116.335 76.8303H128.353L116.85 56.8905L116.833 56.9077Z" fill="#62547B"/>
<path d="M103.527 34.4049V34.3017C102.239 32.5009 100.52 31.0531 98.5283 30.0911C96.5364 29.1292 94.3355 28.684 92.1272 28.7963H76.5898L88.1785 48.5468L103.527 34.4049Z" fill="#62547B"/>
</g>
<defs>
<clipPath id="clip0_440_476">
<rect width="219" height="48" fill="white" transform="translate(49 28.7959)"/>
</clipPath>
</defs>
</svg>
