<svg width="275" height="56" viewBox="0 0 275 56" fill="none" xmlns="http://www.w3.org/2000/svg">
    <path d="M245.669 15.2217L245.498 16.2509L246.968 18.7437C248.87 17.4502 250.521 16.2362 251.87 15.2217H245.669Z" fill="#62547B"/>
    <path d="M253.723 16.6335L255.711 12.1543C253.914 14.2331 252.234 16.4 250.68 18.6458C250.009 19.5568 249.307 20.5288 248.607 21.5322L252.189 27.6024C254.334 26.1721 256.213 24.8306 257.748 23.6812L253.723 16.6335Z" fill="#62547B"/>
    <path d="M256.672 38.0844C256.162 38.7773 255.637 39.5017 255.104 40.2501H258.533L258.936 37.8201L261.701 31.5947C259.904 33.6729 258.226 35.8392 256.672 38.0844Z" fill="#62547B"/>
    <path d="M266.84 15.2217L260.913 21.8241C259.258 23.9121 256.384 27.6466 253.743 31.6047L252.527 38.8742C255.915 36.6013 258.605 34.5613 260.299 33.2235L260.75 30.5219L273.886 16.2528L274.059 15.2235L266.84 15.2217Z" fill="#62547B"/>
    <path d="M236.718 15.2217H220.473L216.301 40.249H223.124L224.586 31.4754H228.56L233.37 38.4363C235.568 36.9746 237.487 35.5998 239.055 34.4338L236.777 31.2832C239.177 30.9284 241.1 30.1148 242.547 28.8422C243.994 27.5697 244.887 25.9164 245.225 23.8826L245.288 23.5001C245.716 20.9377 245.165 18.9174 243.635 17.4391C242.106 15.9608 239.8 15.2217 236.718 15.2217ZM238.355 23.4631L238.291 23.8438C238.247 24.1989 238.126 24.5416 237.935 24.8505C237.744 25.1593 237.488 25.4274 237.181 25.638C236.573 26.0446 235.755 26.2478 234.726 26.2478H225.465L226.323 21.0979H235.585C237.695 21.0979 238.618 21.8863 238.355 23.4631Z" fill="#62547B"/>
    <path d="M238.537 37.3685C237.867 38.2795 237.165 39.2459 236.469 40.2474H242.35L242.523 39.2182L240.88 36.9472L243.576 30.877C241.776 32.9558 240.094 35.1226 238.537 37.3685Z" fill="#62547B"/>
    <path d="M104.895 29.6729C105.331 30.5882 105.449 31.6562 105.247 32.877L105.183 33.2595C105.03 34.2895 104.646 35.2768 104.055 36.1552C103.464 37.0336 102.681 37.7827 101.758 38.3522C99.8428 39.5841 97.3796 40.2001 94.3681 40.2001H78.2305L82.4105 15.1709H97.7698C100.83 15.1709 103.099 15.7561 104.577 16.9264C106.055 18.0967 106.613 19.7597 106.251 21.9156L106.189 22.2981C106.034 23.3406 105.64 24.3386 105.032 25.2219C104.425 26.1053 103.62 26.8525 102.673 27.4111C103.646 27.9278 104.423 28.7188 104.895 29.6729ZM88.2746 20.9732L87.6139 24.9423H96.1405C97.0933 24.9423 97.8188 24.7958 98.3168 24.5026C98.5657 24.3555 98.7761 24.1572 98.9323 23.9227C99.0885 23.6881 99.1864 23.4233 99.2186 23.1481L99.2814 22.7674C99.4813 21.5725 98.6553 20.9744 96.8032 20.9732H88.2746ZM98.3795 32.1139C98.5873 30.8684 97.7521 30.2457 95.8739 30.2457H86.7296L86.0356 34.4034H95.1818C97.0574 34.4034 98.1031 33.7677 98.3187 32.4964L98.3795 32.1139Z" fill="#62547B"/>
    <path d="M110.813 15.1709H133.811L132.83 21.0083H116.669L116.04 24.7853H131.436L130.476 30.5469H115.085L114.45 34.3609H130.613L129.633 40.1982H106.641L110.813 15.1709Z" fill="#62547B"/>
    <path d="M144.895 21.2023H135.516L136.521 15.1709H162.105L161.101 21.1986H151.724L148.556 40.2019H141.725L144.895 21.2023Z" fill="#62547B"/>
    <path d="M164.977 15.1709H188.014L187.008 21.1986H170.802L170.121 25.2805H185.555L184.551 31.3101H169.116L167.641 40.2019H160.803L164.977 15.1709Z" fill="#62547B"/>
    <path d="M193.432 39.193C191.674 38.2227 190.33 36.7046 189.632 34.9004C188.887 33.0452 188.719 30.8961 189.127 28.4533L191.34 15.1709H198.169L195.938 28.5623C195.619 30.4754 195.891 31.9248 196.755 32.9103C197.619 33.8958 199.057 34.3917 201.069 34.3978C203.1 34.3978 204.713 33.902 205.909 32.9103C207.105 31.9186 207.861 30.4687 208.178 28.5605L210.401 15.1709H217.24L215.026 28.4477C214.614 30.9115 213.721 33.0674 212.346 34.9152C211.004 36.735 209.197 38.2063 207.091 39.193C204.891 40.2154 202.465 40.7321 200.012 40.7009C197.412 40.6996 195.219 40.197 193.432 39.193Z" fill="#62547B"/>
    <path d="M39.5394 13.3115C22.043 13.3115 14.6202 23.8092 14.6202 23.8092C15.6858 23.4896 16.8164 23.4117 17.9199 23.5819C17.9199 23.5819 11.4166 29.7537 8.18164 38.1615C8.18164 38.1615 16.2358 37.2375 22.9351 41.2511C21.2882 28.1202 34.1105 23.4285 38.7571 26.5311C38.1219 24.7978 35.8927 22.0075 30.0011 23.2142C35.2437 18.079 45.6506 20.2964 50.9795 26.4978C51.3526 25.5298 51.6002 24.5228 51.7166 23.4987C51.7166 23.4987 54.7458 24.9918 55.5967 27.4051C55.7927 25.816 57.1828 23.8942 57.1828 23.8942C57.1828 23.8942 58.3219 25.2875 59.0748 27.6934C59.6289 26.9814 60.377 26.424 61.2399 26.0802C62.1028 25.7363 63.0483 25.6188 63.9762 25.7402C63.9762 25.7402 57.0357 13.3115 39.5394 13.3115Z" fill="#62547B"/>
    <path d="M29.9911 23.2097C22.4369 25.1869 17.7727 30.481 15.918 38.6171C18.4036 39.0934 20.7792 39.9839 22.933 41.2466C21.2861 28.1158 34.1084 23.4241 38.755 26.5266C38.108 24.7933 35.8729 22.0086 29.9911 23.2097Z" fill="#62547B"/>
    <path d="M47.4375 14.2471C52.0802 16.0949 56.6288 18.4103 59.6324 24.6375L61.4832 25.9939C62.2791 25.7314 63.1288 25.6466 63.9653 25.7463C63.9653 25.7463 59.154 17.1168 47.4375 14.2471Z" fill="#62547B"/>
    <path d="M30.479 16.4877C26.05 10.4083 19.9996 8.33496 19.9996 8.33496C19.9996 8.33496 15.3843 11.4283 16.5529 18.5628C17.3861 14.5123 19.8545 12.5074 19.8545 12.5074C19.8545 12.5074 22.7954 14.5641 24.0247 18.7328C25.254 22.9016 30.479 16.4877 30.479 16.4877Z" fill="#62547B"/>
    <path d="M60.0918 29.9408C61.0368 27.9082 62.8092 27.8398 62.8092 27.8398C62.6701 29.1041 62.262 30.329 61.6093 31.4413C61.2133 30.8518 60.6976 30.3419 60.0918 29.9408Z" fill="#62547B"/>
    <path d="M41.7109 32.0875C51.9217 33.8467 52.9373 45.0225 58.825 45.0225C62.4031 45.0225 63.699 43.0546 63.699 43.0546C61.3934 43.3447 59.721 41.4432 59.6014 40.1442C59.4818 38.8451 59.7798 37.1544 59.7798 37.1544C59.7798 37.1544 62.9167 37.2948 64.2598 38.2815C65.5106 37.6089 67.1085 37.4611 67.1085 37.4611C67.1085 37.4611 65.4283 34.9591 61.0307 33.7524C60.4699 34.9443 59.0583 36.053 59.0583 36.053C59.0583 36.053 56.286 31.9231 49.5984 30.4355C50.0724 31.2586 50.3639 32.1639 50.4552 33.0965C50.4552 33.0965 47.3673 30.7996 41.7109 32.0875Z" fill="#62547B"/>
    <path d="M41.3336 37.2902C40.1376 36.0244 40.3905 34.7974 40.3905 34.7974C40.3905 34.7974 40.9787 34.2246 42.7197 34.2246C46.4213 34.2246 49.7523 40.4352 52.7187 43.0537C48.4681 41.653 40.8277 45.8254 39.3965 38.0645C40.714 40.2505 42.5472 40.2652 42.5472 40.2652C42.2848 39.7004 42.1919 39.0785 42.2786 38.4673C43.4177 39.6185 45.7135 39.6592 45.7135 39.6592C43.349 38.0497 42.3472 35.2243 42.3472 35.2243C41.4806 36.0521 41.3336 37.2902 41.3336 37.2902Z" fill="#62547B"/>
    <path d="M40.3282 32.6402C34.5287 34.3513 37.9068 45.5216 45.7237 44.666C53.5406 43.8105 56.8991 45.9965 58.2715 49.3725C56.1059 48.0664 53.5883 47.3732 51.0173 47.375C51.6484 47.6369 52.204 48.0372 52.6378 48.5425C53.0716 49.0478 53.3711 49.6434 53.5112 50.2798C52.1027 49.0176 50.2297 48.3194 48.2862 48.3322C44.1219 48.3322 39.8243 49.7846 36.2442 48.358C32.4113 43.4575 33.9739 38.6383 33.9739 38.6383C32.3093 39.4847 31.9564 41.2512 31.9564 41.2512C31.9564 41.2512 30.8193 32.5589 40.3282 32.6402Z" fill="#62547B"/>
    <path d="M58.273 49.3738C50.0483 40.1179 36.7084 53.3985 33.9793 38.6396C33.9793 38.6396 32.4108 43.4589 36.2497 48.3538C39.8297 49.7804 44.1273 48.3279 48.2916 48.3279C50.2359 48.3169 52.1089 49.0171 53.5166 50.2811C53.3754 49.6461 53.0757 49.0519 52.6423 48.5477C52.209 48.0435 51.6545 47.6439 51.0247 47.3818C53.5931 47.3798 56.1083 48.0711 58.273 49.3738Z" fill="#62547B"/>
    <path d="M40.8125 23.7695C42.2182 26.8 43.8024 28.5093 43.8024 28.5093C43.8024 28.5093 45.7512 28.7643 47.5177 27.9956C47.5177 27.9956 45.6218 24.9134 40.8125 23.7695Z" fill="#62547B"/>
    <path d="M45.791 13.877C50.4337 15.7248 53.3726 17.9422 55.1372 23.1698L57.8938 23.7667C58.9995 25.6903 63.0227 25.633 63.9716 25.7346C63.9638 25.7365 58.6564 16.1461 45.791 13.877Z" fill="#62547B"/>
    <path d="M51.0508 10.7778C52.7075 7.96354 54.9034 7.40918 54.9034 7.40918C54.9034 7.40918 57.7717 10.6928 57.956 16.1403C56.2682 14.9394 54.3915 13.9948 52.3938 13.3408C53.4884 13.2427 54.5926 13.3688 55.6307 13.7104C55.5092 12.0633 54.9014 10.4811 53.876 9.14247C53.876 9.14247 52.7918 9.37714 51.0508 10.7778Z" fill="#62547B"/>
    <path d="M64.3551 41.8259C65.3455 40.9671 66.1585 39.9427 66.7529 38.8047C66.0909 38.921 65.449 39.1224 64.8452 39.4034C64.5024 40.1693 64.3353 40.9949 64.3551 41.8259Z" fill="#62547B"/>
    <path d="M55.9643 0.942383L55.1565 1.31195C54.171 1.74993 53.218 2.24999 52.3038 2.80872C51.3964 3.36475 50.5251 3.97131 49.6943 4.62516C48.8708 5.27692 48.0854 5.97026 47.3416 6.70215C46.9671 7.07172 46.6044 7.44129 46.2515 7.83303C46.077 8.01782 45.9045 8.22293 45.7339 8.42435C45.7339 8.42435 38.0425 8.40956 34.5801 11.113C40.1031 9.91002 46.8044 11.1019 46.8044 11.1019L47.3043 10.4422L47.5004 10.1909L47.7219 9.9248C47.8729 9.74002 48.0278 9.57002 48.1886 9.39447C48.5062 9.04338 48.8375 8.70152 49.1689 8.36706C49.8508 7.69815 50.5707 7.06463 51.3255 6.46932C52.0749 5.87811 52.8604 5.32896 53.6782 4.82473C54.2416 4.48102 54.8193 4.16381 55.4114 3.87308C56.1021 4.58885 56.729 5.35708 57.2857 6.16996C57.6439 6.69845 57.9745 7.24295 58.2778 7.80347C58.5758 8.35782 58.8503 8.94175 59.0914 9.52936C59.5758 10.7078 59.944 11.9257 60.1913 13.1678C60.3129 13.7905 60.407 14.4188 60.4658 15.0471C60.4972 15.3612 60.5168 15.6735 60.5305 15.9858V16.8746L60.5109 17.5731L61.1108 17.9611L61.2187 18.0313L61.3461 18.1163L61.6029 18.3011C61.7755 18.4243 61.9461 18.5537 62.1147 18.6892C62.4519 18.9553 62.7793 19.2435 63.095 19.53C63.7281 20.1155 64.3146 20.7442 64.8497 21.4111C65.3812 22.071 65.8558 22.7698 66.2692 23.501C66.6224 24.1399 66.9233 24.8034 67.1691 25.4856C67.0632 25.9309 66.9554 26.3763 66.8279 26.8179C66.677 27.3612 66.5005 27.9007 66.3182 28.4366C66.1358 28.9725 65.9261 29.501 65.7104 30.0221C65.6026 30.2826 65.4869 30.5395 65.3712 30.7945L65.1908 31.164C65.134 31.2842 65.0654 31.4172 65.0144 31.5114L64.487 32.5037L65.4673 33.084C66.5235 33.7093 67.5089 34.435 68.4082 35.2497C68.6356 35.4492 68.8473 35.6636 69.061 35.8742C69.2747 36.0849 69.4787 36.3066 69.6708 36.5358C70.0649 36.9846 70.4271 37.4574 70.755 37.9512C71.4177 38.931 71.9448 39.9867 72.3235 41.0926C72.5135 41.6431 72.6647 42.2048 72.7764 42.7741C72.8313 43.0568 72.8764 43.3414 72.9097 43.6241V43.6426C72.1303 43.9387 71.3673 44.2717 70.6236 44.6404C69.5847 45.1615 68.5827 45.7454 67.6239 46.3885C66.6651 47.0191 65.7484 47.7047 64.8791 48.4415C64.0164 49.1634 63.211 49.9441 62.4695 50.7772C63.3506 50.0981 64.283 49.4805 65.2595 48.9293C66.2223 48.3759 67.2194 47.8773 68.2454 47.4363C69.2576 47.0041 70.2982 46.6338 71.3608 46.3275C72.4068 46.0241 73.474 45.7901 74.5546 45.6272L75.5094 45.4831V44.1692L75.4957 43.8995C75.484 43.7147 75.4663 43.5465 75.4467 43.3728C75.4075 43.0273 75.3526 42.6873 75.2879 42.3473C75.1548 41.675 74.976 41.0115 74.7526 40.3608C74.308 39.0605 73.6901 37.8187 72.9136 36.6651C72.5294 36.0854 72.1057 35.5299 71.6451 35.002C71.4216 34.7341 71.1765 34.4865 70.9373 34.2315C70.6981 33.9765 70.4413 33.7381 70.1805 33.5071C69.4236 32.8191 68.6115 32.1871 67.7514 31.6168C67.8612 31.3747 67.969 31.1308 68.0709 30.8869C68.3075 30.3177 68.5271 29.7443 68.7297 29.1665C68.9258 28.5881 69.1218 28.0079 69.2806 27.4184C69.4394 26.829 69.5924 26.2377 69.7277 25.6427L69.7963 25.3415L69.6963 25.0421C69.3894 24.119 68.9957 23.2236 68.5199 22.3664C68.0454 21.5162 67.4985 20.7035 66.8848 19.9365C66.2733 19.1774 65.6036 18.4616 64.8811 17.7948C64.5184 17.4622 64.1458 17.1388 63.7557 16.8302C63.5596 16.675 63.3636 16.5253 63.1577 16.3757L63.0852 16.3239C63.0852 16.1779 63.0852 16.032 63.0754 15.886C63.0597 15.5293 63.0381 15.1746 63.0028 14.8216C62.9361 14.1157 62.8322 13.4154 62.697 12.7206C62.425 11.3296 62.0181 9.96511 61.4814 8.64424C61.2089 7.98456 60.8932 7.33596 60.5658 6.7003C60.2244 6.06661 59.8488 5.44985 59.4404 4.85244C58.4267 3.44046 57.2618 2.13024 55.9643 0.942383V0.942383Z" fill="#62547B"/>
    <path d="M63.8554 25.5438L63.707 25.2734C63.7486 25.3517 63.806 25.4543 63.8554 25.5438Z" fill="#62547B"/>
    <path d="M63.9033 25.6175L63.8613 25.54L63.9033 25.6175Z" fill="#62547B"/>
    <path d="M63.9093 25.6503L63.8887 25.6113L63.9093 25.6503Z" fill="#62547B"/>
    <path d="M63.9606 25.7407L63.9082 25.6475L63.9606 25.7407Z" fill="#62547B"/>
    <path d="M57.8906 24.9985C58.3771 25.8586 58.7674 26.764 59.0552 27.7001C59.6087 26.9871 60.3565 26.4286 61.2194 26.0838C62.0823 25.7389 63.0282 25.6206 63.9567 25.7414C61.3648 24.0968 58.9807 24.6086 57.8906 24.9985Z" fill="#62547B"/>
    <path d="M51.704 23.4995C45.483 16.2651 31.7177 14.5189 22.7754 23.6953C24.2792 22.8194 26.9358 22.3187 29.9825 23.2204L30.0139 23.202C35.2644 18.0908 45.6516 20.3101 50.9726 26.5022C51.3439 25.5327 51.5895 24.5245 51.704 23.4995Z" fill="#62547B"/>
    <path d="M30.5519 51.9143C29.4339 50.9825 28.2595 50.1125 27.0346 49.3088C24.5702 47.694 21.9372 46.3207 19.1766 45.2103C16.401 44.0939 13.5217 43.2223 10.5754 42.6067C8.1208 42.0947 5.63139 41.744 3.12519 41.5571C3.35262 40.6763 3.61403 39.8016 3.90942 38.9331C4.80137 36.3297 5.96787 33.817 7.39144 31.4327C7.74631 30.8377 8.11882 30.2501 8.50702 29.6772C8.70308 29.3908 8.89914 29.1063 9.0952 28.8272L9.41085 28.4059C9.51084 28.2747 9.62456 28.1306 9.71082 28.0234L11.4616 25.8891L8.61289 26.0887L7.32478 26.1774L7.35027 26.1441C7.85259 25.5155 8.39126 24.9134 8.96384 24.3406C9.54025 23.7586 10.1402 23.195 10.7754 22.6499C11.0891 22.3782 11.4087 22.1103 11.7322 21.8497C12.0557 21.5892 12.391 21.3249 12.7125 21.0958L13.2203 20.7262L13.2066 20.1183V19.5639C13.2066 19.3791 13.2066 19.1796 13.2242 18.9874C13.2399 18.6012 13.2654 18.215 13.2987 17.8251C13.3634 17.049 13.4614 16.2748 13.5869 15.5079C13.8319 13.9779 14.2162 12.4706 14.7358 11.0028C15.2398 9.56061 15.9313 8.18272 16.7944 6.90059C17.5129 5.83753 18.3943 4.88046 19.4099 4.06044C20.2621 4.38443 21.1006 4.73675 21.9253 5.11741C22.9628 5.59762 23.9732 6.12805 24.9525 6.70657C25.9267 7.28292 26.8654 7.91097 27.764 8.58768C28.211 8.92584 28.6462 9.27508 29.0619 9.63911C29.2697 9.8239 29.4736 10.0087 29.6697 10.1935L29.9559 10.4743L30.0912 10.6129L30.1931 10.7367L30.7323 11.3114C26.2504 3.98468 18.9687 1.33301 18.9687 1.33301L18.4178 1.7266C16.9277 2.79119 15.6509 4.09776 14.6476 5.58492C13.6692 7.03334 12.8855 8.59068 12.3145 10.2212C11.7479 11.8203 11.3281 13.4623 11.0597 15.1291C10.929 15.9569 10.8257 16.7885 10.7499 17.6237C10.7146 18.0413 10.6879 18.4601 10.6696 18.8802C10.6597 19.0909 10.6539 19.3015 10.6499 19.514V19.5658C10.4539 19.7173 10.2578 19.867 10.0735 20.0222C9.72847 20.3031 9.38732 20.5876 9.05206 20.8796C8.38154 21.4598 7.73193 22.0659 7.10323 22.6979C6.4657 23.3357 5.86615 24.0062 5.30733 24.7065C4.72308 25.4344 4.2155 26.2141 3.79179 27.0348L2.85266 28.8956L5.03873 28.7422L6.17195 28.6628C5.82689 29.1839 5.49162 29.7105 5.17205 30.2445C3.6622 32.7738 2.42541 35.4394 1.48025 38.2014C1.00999 39.586 0.617326 40.9929 0.303892 42.4163L0 43.8558H1.53711C4.44322 43.8054 7.34881 43.9803 10.2245 44.3788C13.1131 44.7794 15.9558 45.4326 18.7158 46.3301C21.4916 47.2331 24.1627 48.4002 26.6876 49.8133C27.9549 50.5237 29.1777 51.3024 30.35 52.1453C31.5329 52.981 32.6399 53.9082 33.6595 54.9171C32.7148 53.8358 31.6753 52.8314 30.5519 51.9143Z" fill="#62547B"/>
    <path d="M55.5336 20.2137C55.632 21.2143 55.4982 22.2232 55.1415 23.1703C53.7201 20.9528 49.9479 18.582 49.9479 18.582C49.9479 18.582 50.1891 21.9636 49.2656 24.3806L51.1321 26.0658C51.415 25.23 51.6081 24.3695 51.7085 23.4973C53.3991 24.3902 54.7546 25.7549 55.5885 27.4037C56.8433 25.9827 57.1747 23.8928 57.1747 23.8928C57.812 24.7484 58.325 25.6806 58.7 26.6645L60.3626 25.8607C59.0431 22.2962 55.5336 20.2137 55.5336 20.2137Z" fill="#62547B"/>
    </svg>
    