<svg width="318" height="104" viewBox="0 0 318 104" fill="none" xmlns="http://www.w3.org/2000/svg">
<g clipPath="url(#clip0_440_567)">
<path d="M79.3042 62.312H104.739L101.919 71.5305H71.7121C67.2089 71.5305 63.9848 67.1776 65.3008 62.8721L73.926 34.6844H87.7571L79.3042 62.312ZM123.382 57.0021H146.692C146.562 55.7086 146.577 54.4046 146.738 53.1145C146.902 51.7835 147.209 50.4911 147.652 49.2269H125.758L127.383 43.9187H150.426C151.831 41.9619 153.494 40.2041 155.37 38.6931L156.59 34.7002H116.372L107.748 62.8861C106.431 67.1934 109.656 71.5428 114.16 71.5428H145.319L148.139 62.3243H121.752L123.382 57.0038V57.0021ZM238.192 34.6932L232.006 54.909C228.123 49.1531 224.24 43.3955 220.35 37.6466C219.738 36.7367 218.912 35.9912 217.944 35.4758C216.976 34.9605 215.896 34.6911 214.799 34.6914H206.048C204.746 38.953 203.435 43.2146 202.135 47.4833C202.516 49.2778 202.606 51.1707 202.367 53.1127C201.85 57.2848 199.898 61.1864 196.927 64.5139C196.209 66.8545 195.499 69.1951 194.78 71.534H208.613L214.868 51.0952C219.468 57.9046 224.061 64.7228 228.66 71.534H240.759C244.514 59.2514 248.269 46.9688 252.025 34.6914L238.192 34.6932ZM199.029 53.1075C197.721 63.7764 185.698 72.419 172.181 72.419C158.663 72.419 148.766 63.7694 150.075 53.1075C151.384 42.4455 163.405 33.7959 176.922 33.7959C190.442 33.7959 200.337 42.4455 199.029 53.1075ZM175.683 43.91C169.242 43.91 163.519 48.0293 162.892 53.1057C162.27 58.1891 166.982 62.3014 173.417 62.3014C179.858 62.3014 185.58 58.182 186.208 53.1057C186.838 48.0293 182.124 43.91 175.683 43.91Z" fill="#62547B"/>
</g>
<defs>
<clipPath id="clip0_440_567">
<rect width="188" height="38.6301" fill="white" transform="translate(65 33.7959)"/>
</clipPath>
</defs>
</svg>
