<svg width="318" height="104" viewBox="0 0 318 104" fill="none" xmlns="http://www.w3.org/2000/svg">
<g clipPath="url(#clip0_440_313)">
<path d="M21.2861 30.4956L14.3048 37.6248L19.2337 62.5836L26.2083 55.4951L21.2861 30.4956ZM76.1782 62.5836L81.1072 37.6248L74.126 30.4956L69.2071 55.4951L76.1782 62.5836ZM68.2159 56.2177H27.1961L20.3917 63.133H75.0237L68.2159 56.2177ZM18.3427 64.3541H18.3394L13 37.2246L21.0091 29.0915H22.3773L34.3576 42.6512L47.706 29.0847L61.0545 42.6512L73.1616 28.9932L74.403 29.0847L82.4121 37.2246L77.0727 64.3541V64.3574L77.0693 64.3541H18.3427Z" fill="#62547B"/>
<path d="M238.59 64.3574V37.2246H246.599V64.3574H238.59ZM117.118 64.3574V27.7959H125.127V64.3574H117.118ZM257.878 64.3574H249.869V37.2246H257.478V40.3448C257.544 40.277 257.577 40.2261 257.604 40.182C258.855 38.0826 260.73 36.9193 263.067 36.5055C265.302 36.1087 267.519 36.1664 269.637 37.0957C272.681 38.4286 274.26 40.8468 274.594 44.1536C274.634 44.5403 274.627 44.9336 274.631 45.3272C274.631 49.4377 274.634 55.78 274.631 64.3574H266.621C266.631 56.8417 266.631 51.2963 266.621 47.7148C266.618 46.9516 266.567 46.175 266.425 45.4255C266.147 43.984 265.246 43.109 263.807 42.97C262.886 42.8784 261.975 42.8614 261.071 43.0242C259.236 43.3532 258.158 44.7065 257.951 46.7347C257.898 47.24 257.882 47.7487 257.882 48.2575C257.875 51.7135 257.875 57.0824 257.878 64.3574ZM171.847 46.7211H179.859C179.875 46.8296 179.859 52.2834 179.859 55.0509C179.789 57.4318 178.852 59.6498 177.34 61.5322C175.908 63.3162 174.023 64.3473 171.83 64.7848C168.69 65.4088 165.289 65.3071 162.349 63.8792C159.94 62.7091 158.458 60.7148 157.707 58.1406C157.304 56.7534 157.164 55.3324 157.164 53.891C157.167 48.6069 157.167 39.9073 157.164 27.7959H165.173V37.2246H179.859V42.6511H165.173C165.149 47.6368 165.149 51.2827 165.173 53.5856C165.179 54.3963 165.276 55.2306 165.49 56.0107C165.84 57.2859 166.811 57.9541 168.096 58.0728C168.563 58.1169 168.707 58.1169 169.17 58.0422C170.509 57.8286 171.333 56.9976 171.63 55.6783C171.777 55.0237 171.84 54.3386 171.847 53.6671C171.864 52.1647 171.864 49.8481 171.847 46.7211ZM211.892 27.7959H219.944L219.901 45.6969C223.653 41.4132 226.065 38.588 227.14 37.2246C227.169 37.1873 230.433 37.1873 236.934 37.2246L228.028 46.7584C231.944 54.6302 234.848 60.5012 236.741 64.3744H227.821C226.665 61.8002 224.901 57.9303 222.522 52.7683L219.901 55.6173V64.3574H211.892V27.7959ZM295.991 37.2246H303.997C304.003 37.3602 303.997 55.5393 303.997 64.5712C303.997 66.9928 303.58 69.3193 302.365 71.4426C300.796 74.1829 298.4 75.8483 295.447 76.669C291.783 77.6865 287.912 77.6831 284.311 76.3909C280.317 74.9596 277.86 72.1344 277.177 67.8236C277.099 67.3489 277.089 66.8638 277.053 66.3822C277.043 66.2431 277.033 65.8802 277.033 65.7107H284.374C284.374 66.0533 284.407 66.5721 284.465 66.8741C284.721 68.2103 285.462 69.204 286.684 69.7298C288.863 70.6693 291.223 70.6964 293.388 69.7025C294.906 69.0073 295.801 67.732 295.928 66.0498C295.988 65.2494 295.988 64.4354 295.988 63.6079C295.988 62.9533 295.991 62.2817 295.991 61.6407C295.998 61.6374 295.912 61.7086 295.897 61.729C294.982 63.1263 293.635 63.8825 292.084 64.2387C289.787 64.7678 287.408 64.7949 285.265 64.1641C284.281 63.8758 283.319 63.445 282.378 62.8652C280.353 61.6068 279.002 59.7414 278.217 57.4996C276.613 52.9039 276.522 48.2676 278.298 43.7025C279.713 40.0701 282.249 37.5977 286.059 36.6412C287.674 36.2376 289.31 36.1901 290.941 36.5361C292.818 36.9329 294.316 37.9402 295.457 39.5003C295.601 39.6971 295.915 40.0973 295.988 40.1074V37.2246H295.991ZM285.842 54.5353C286.343 56.031 287.168 57.2757 288.656 57.9202C290.836 58.8664 294.245 58.4425 295.51 54.6608C296.427 51.9205 296.302 49.136 295.374 46.4158C294.736 44.5436 293.402 43.4651 291.439 43.2006C288.676 42.8309 286.644 44.1299 285.842 46.7448C285.452 48.0234 285.328 49.3461 285.312 51.0046C285.312 51.995 285.426 53.2906 285.842 54.5353ZM195.874 36.2851C197.823 36.2614 199.756 36.5937 201.657 37.3229C205.645 38.8525 208.084 41.8405 209.227 45.9647C209.657 47.5181 209.817 49.1121 209.833 50.7842C209.797 53.5382 209.303 56.2413 207.894 58.7103C206.136 61.7968 203.512 63.7299 200.136 64.5983C198.711 64.9645 197.289 65.151 195.874 65.151C194.458 65.151 193.038 64.9612 191.613 64.5983C188.232 63.7334 185.609 61.7968 183.853 58.7103C182.445 56.238 181.952 53.5348 181.916 50.7842C181.932 49.1088 182.093 47.5181 182.522 45.9647C183.663 41.8372 186.104 38.8525 190.09 37.3229C191.993 36.5903 193.926 36.2614 195.874 36.2851ZM195.874 43.1565C195.277 43.1497 194.713 43.2311 194.042 43.4177C192.073 43.9705 191.023 45.4085 190.578 47.3316C190.017 49.7702 190.011 52.2222 190.725 54.6337C191.338 56.7059 192.524 57.9779 194.67 58.2899C195.083 58.3509 195.48 58.3883 195.874 58.3916C196.267 58.3848 196.666 58.3509 197.079 58.2899C199.222 57.9779 200.409 56.7059 201.024 54.6337C201.737 52.2222 201.733 49.7667 201.17 47.3316C200.726 45.4085 199.675 43.9705 197.706 43.4177C197.036 43.2311 196.472 43.1531 195.874 43.1565ZM141.449 36.2851C143.398 36.2614 145.33 36.5937 147.232 37.3229C151.22 38.8525 153.66 41.8405 154.801 45.9647C155.231 47.5181 155.391 49.1121 155.408 50.7842C155.371 53.5382 154.878 56.2413 153.469 58.7103C151.711 61.7968 149.088 63.7299 145.711 64.5983C144.286 64.9645 142.864 65.151 141.449 65.151C140.034 65.151 138.613 64.9612 137.188 64.5983C133.807 63.7334 131.184 61.7968 129.429 58.7103C128.02 56.238 127.527 53.5348 127.49 50.7842C127.507 49.1088 127.667 47.5181 128.097 45.9647C129.238 41.8372 131.678 38.8525 135.666 37.3229C137.565 36.5903 139.5 36.2614 141.449 36.2851ZM141.449 43.1565C140.852 43.1497 140.288 43.2311 139.617 43.4177C137.648 43.9705 136.597 45.4085 136.153 47.3316C135.592 49.7702 135.586 52.2222 136.3 54.6337C136.914 56.7059 138.099 57.9779 140.244 58.2899C140.658 58.3509 141.055 58.3883 141.449 58.3916C141.843 58.3848 142.24 58.3509 142.654 58.2899C144.796 57.9779 145.984 56.7059 146.598 54.6337C147.312 52.2222 147.309 49.7667 146.745 47.3316C146.301 45.4085 145.25 43.9705 143.281 43.4177C142.61 43.2311 142.046 43.1531 141.449 43.1565ZM114.382 45.4323H106.973C106.97 45.3508 106.96 45.1949 106.943 45.0965C106.636 43.1836 105.765 42.2543 103.9 41.9389C102.698 41.7354 101.49 41.7558 100.332 42.1899C99.9553 42.3323 99.5816 42.5494 99.2845 42.8207C98.5036 43.533 98.4869 44.9404 99.3012 45.6018C99.8285 46.0292 100.463 46.1921 101.11 46.3886C102.889 46.928 104.701 47.5588 106.493 48.0472C108.291 48.5356 110.063 49.0918 111.702 50.0177C113.935 51.2827 115.046 53.1109 115.173 55.6749C115.249 57.2689 115.062 58.758 114.362 60.213C113.477 62.0478 112.022 63.245 110.197 64.0216C108.101 64.9103 105.892 65.1578 103.646 65.1849C101.117 65.2155 98.6238 64.951 96.2444 64.0115C93.7416 63.0211 91.7794 61.4238 90.7683 58.8087C90.4545 58.0015 90.2743 57.1672 90.2109 56.2855C90.2109 56.2855 98.3269 56.2752 98.3269 56.2855C98.5104 57.3504 99.0911 58.1474 100.022 58.629C101.941 59.6126 103.943 59.6703 105.956 58.9613C106.83 58.6528 107.454 57.7777 107.457 57.0892C107.534 56.1057 106.936 55.6038 106.459 55.4103C105.492 55.0135 104.49 54.6711 103.483 54.393C101.257 53.7791 98.9942 53.3042 96.8552 52.3986C95.2533 51.7169 93.7917 50.8181 92.6904 49.4106C91.3655 47.7182 90.9751 45.5611 91.2222 43.4651C91.6225 40.0803 93.7249 38.2047 96.7517 37.2042C98.7605 36.5395 100.843 36.3835 102.942 36.3936C104.811 36.4038 106.656 36.5734 108.448 37.1398C111.966 38.2522 113.851 40.7349 114.318 44.4013C114.348 44.6081 114.368 44.9507 114.382 45.4323Z" fill="#62547B"/>
</g>
<defs>
<clipPath id="clip0_440_313">
<rect width="291" height="49.6023" fill="white" transform="translate(13 27.7959)"/>
</clipPath>
</defs>
</svg>
