<svg
    viewBox="0 0 107 20"
    fill="none"
    xmlns="http://www.w3.org/2000/svg"
>
    <g clipPath="url(#clip0_481_1145)">
        <path
            d="M11.5021 0.248047C12.5992 0.250972 13.1559 0.256823 13.6367 0.270475L13.8258 0.277301C14.0443 0.285102 14.2598 0.294853 14.5201 0.306555C15.5576 0.355312 16.2656 0.519136 16.8867 0.759995C17.5303 1.00768 18.0725 1.34313 18.6146 1.88433C19.1107 2.37164 19.4944 2.96134 19.7389 3.61228C19.9798 4.23344 20.1436 4.94139 20.1924 5.97991C20.2041 6.2393 20.2138 6.45481 20.2216 6.67421L20.2275 6.86339C20.2421 7.34316 20.2479 7.89996 20.2499 8.99699L20.2509 9.72445V11.0019C20.2532 11.7131 20.2458 12.4244 20.2284 13.1355L20.2226 13.3247C20.2148 13.5441 20.205 13.7596 20.1933 14.019C20.1446 15.0575 19.9788 15.7645 19.7389 16.3866C19.4944 17.0375 19.1107 17.6272 18.6146 18.1145C18.1273 18.6106 17.5376 18.9943 16.8867 19.2389C16.2656 19.4797 15.5576 19.6436 14.5201 19.6923L13.8258 19.7216L13.6367 19.7274C13.1559 19.7411 12.5992 19.7479 11.5021 19.7498L10.7747 19.7508H9.49829C8.78671 19.7533 8.07514 19.7459 7.36377 19.7284L7.1746 19.7225C6.94312 19.7138 6.71168 19.7037 6.48032 19.6923C5.4428 19.6436 4.73486 19.4797 4.11274 19.2389C3.46218 18.9942 2.87283 18.6105 2.38582 18.1145C1.88943 17.6273 1.5054 17.0376 1.26054 16.3866C1.01968 15.7654 0.855864 15.0575 0.807108 14.019L0.777855 13.3247L0.772979 13.1355C0.755004 12.4244 0.746877 11.7132 0.748602 11.0019V8.99699C0.745903 8.28573 0.753054 7.57446 0.770054 6.86339L0.77688 6.67421C0.784681 6.45481 0.794432 6.2393 0.806133 5.97991C0.854889 4.94139 1.01871 4.23441 1.25956 3.61228C1.50499 2.96108 1.8897 2.37135 2.38679 1.88433C2.87352 1.38852 3.46252 1.00483 4.11274 0.759995C4.73486 0.519136 5.44182 0.355312 6.48032 0.306555C6.7397 0.294853 6.95617 0.285102 7.1746 0.277301L7.36377 0.27145C8.07481 0.254125 8.78607 0.246648 9.49732 0.249022L11.5021 0.248047ZM10.4997 5.12374C9.20665 5.12374 7.96653 5.63743 7.05219 6.5518C6.13784 7.46617 5.62417 8.70632 5.62417 9.99943C5.62417 11.2925 6.13784 12.5327 7.05219 13.4471C7.96653 14.3614 9.20665 14.8751 10.4997 14.8751C11.7928 14.8751 13.0329 14.3614 13.9473 13.4471C14.8616 12.5327 15.3753 11.2925 15.3753 9.99943C15.3753 8.70632 14.8616 7.46617 13.9473 6.5518C13.0329 5.63743 11.7928 5.12374 10.4997 5.12374ZM10.4997 7.07402C10.8839 7.07395 11.2643 7.14956 11.6192 7.29652C11.9742 7.44347 12.2967 7.6589 12.5684 7.93051C12.8401 8.20211 13.0556 8.52457 13.2027 8.87948C13.3498 9.23438 13.4255 9.61478 13.4256 9.99895C13.4256 10.3831 13.35 10.7635 13.2031 11.1185C13.0561 11.4734 12.8407 11.796 12.5691 12.0677C12.2975 12.3394 11.975 12.5549 11.6202 12.702C11.2653 12.8491 10.8849 12.9248 10.5007 12.9249C9.72486 12.9249 8.98079 12.6166 8.43218 12.068C7.88357 11.5194 7.57537 10.7753 7.57537 9.99943C7.57537 9.22357 7.88357 8.47948 8.43218 7.93085C8.98079 7.38223 9.72486 7.07402 10.5007 7.07402M15.6201 3.66103C15.2968 3.66103 14.9868 3.78945 14.7582 4.01805C14.5296 4.24664 14.4012 4.55668 14.4012 4.87996C14.4012 5.20323 14.5296 5.51327 14.7582 5.74187C14.9868 5.97046 15.2968 6.09888 15.6201 6.09888C15.9433 6.09888 16.2534 5.97046 16.4819 5.74187C16.7105 5.51327 16.8389 5.20323 16.8389 4.87996C16.8389 4.55668 16.7105 4.24664 16.4819 4.01805C16.2534 3.78945 15.9433 3.66103 15.6201 3.66103Z"
            fill="white"
        />
    </g>
    <path
        d="M25.7309 15.5V4.1231H28.2339V15.5H25.7309ZM30.817 15.5V6.78855H33.2874V8.02375C33.8563 7.29238 34.6039 6.62602 35.8391 6.62602C37.7244 6.62602 38.7971 7.84497 38.7971 9.86031V15.5H36.3267V10.6404C36.3267 9.47025 35.7904 8.8689 34.8314 8.8689C33.8725 8.8689 33.2874 9.47025 33.2874 10.6404V15.5H30.817ZM43.9987 15.6625C42.7635 15.6625 41.4308 15.2562 40.2606 14.3461L41.317 12.7208C42.276 13.4197 43.2349 13.761 44.0637 13.761C44.7789 13.761 45.1039 13.5009 45.1039 13.1109V13.0783C45.1039 12.542 44.2588 12.3795 43.2999 12.0707C42.0809 11.7294 40.6994 11.1443 40.6994 9.45399V9.42149C40.6994 7.64994 42.1297 6.65853 43.885 6.65853C44.9902 6.65853 46.1766 7.03234 47.1355 7.6662L46.1929 9.37273C45.3315 8.8689 44.4701 8.56009 43.8362 8.56009C43.2349 8.56009 42.9261 8.82014 42.9261 9.16144V9.19395C42.9261 9.64903 43.7549 9.94157 44.6976 10.2341C45.9166 10.6242 47.3305 11.2255 47.3305 12.8183V12.8508C47.3305 14.7849 45.8841 15.6625 43.9987 15.6625ZM51.8843 15.6463C50.3891 15.6463 49.3489 15.0449 49.3489 13.0296V8.9014H48.3088V6.78855H49.3489V4.56193H51.8193V6.78855H53.8672V8.9014H51.8193V12.6233C51.8193 13.1921 52.0794 13.4684 52.6157 13.4684C53.0545 13.4684 53.4609 13.3709 53.8347 13.1596V15.1424C53.3146 15.4512 52.7132 15.6463 51.8843 15.6463ZM58.1585 15.6625C56.517 15.6625 55.168 14.7361 55.168 12.9971V12.9646C55.168 11.0793 56.6145 10.1854 58.6786 10.1854C59.5725 10.1854 60.1739 10.3316 60.8077 10.5429V10.3966C60.8077 9.35648 60.1739 8.80388 58.9387 8.80388C57.9797 8.80388 57.3296 8.96641 56.5333 9.27521L55.9157 7.3899C56.8746 6.98358 57.8172 6.69103 59.2962 6.69103C60.6614 6.69103 61.6041 7.03234 62.238 7.6662C62.8881 8.3163 63.1806 9.27521 63.1806 10.4454V15.5H60.7915V14.5573C60.1901 15.2237 59.3775 15.6625 58.1585 15.6625ZM58.9062 13.956C60.0763 13.956 60.8402 13.3384 60.8402 12.4282V11.9894C60.4014 11.7944 59.8651 11.6644 59.2637 11.6644C58.2073 11.6644 57.5572 12.0869 57.5572 12.8671V12.8996C57.5572 13.5659 58.1098 13.956 58.9062 13.956ZM69.2071 18.1329C67.7768 18.1329 66.4604 17.8079 65.3552 17.2228L66.2003 15.37C67.1105 15.8738 67.9719 16.1664 69.1421 16.1664C70.8323 16.1664 71.6287 15.3537 71.6287 13.7935V13.3709C70.8973 14.2648 70.101 14.7849 68.7845 14.7849C66.7529 14.7849 64.9164 13.3221 64.9164 10.7217V10.6892C64.9164 8.08877 66.7854 6.62602 68.7845 6.62602C70.1335 6.62602 70.9299 7.19487 71.5962 7.92624V6.78855H74.0666V13.5334C74.0666 15.0774 73.6928 16.2314 72.9614 16.9627C72.1326 17.7916 70.8973 18.1329 69.2071 18.1329ZM69.4996 12.737C70.7186 12.737 71.6287 11.9082 71.6287 10.7217V10.6892C71.6287 9.50275 70.7186 8.67386 69.4996 8.67386C68.2969 8.67386 67.3868 9.50275 67.3868 10.6892V10.7217C67.3868 11.9407 68.2807 12.737 69.4996 12.737ZM76.2738 15.5V6.78855H78.7442V8.54384C79.2481 7.35739 80.0444 6.56101 81.5234 6.62602V9.2102H81.3934C79.7519 9.2102 78.7442 10.1854 78.7442 12.282V15.5H76.2738ZM85.1247 15.6625C83.4832 15.6625 82.1342 14.7361 82.1342 12.9971V12.9646C82.1342 11.0793 83.5807 10.1854 85.6448 10.1854C86.5387 10.1854 87.14 10.3316 87.7739 10.5429V10.3966C87.7739 9.35648 87.14 8.80388 85.9048 8.80388C84.9459 8.80388 84.2958 8.96641 83.4994 9.27521L82.8818 7.3899C83.8407 6.98358 84.7834 6.69103 86.2624 6.69103C87.6276 6.69103 88.5703 7.03234 89.2041 7.6662C89.8542 8.3163 90.1468 9.27521 90.1468 10.4454V15.5H87.7576V14.5573C87.1563 15.2237 86.3436 15.6625 85.1247 15.6625ZM85.8723 13.956C87.0425 13.956 87.8064 13.3384 87.8064 12.4282V11.9894C87.3676 11.7944 86.8312 11.6644 86.2299 11.6644C85.1734 11.6644 84.5233 12.0869 84.5233 12.8671V12.8996C84.5233 13.5659 85.0759 13.956 85.8723 13.956ZM92.2726 15.5V6.78855H94.743V8.02375C95.3118 7.29238 96.0595 6.62602 97.3109 6.62602C98.4649 6.62602 99.31 7.1136 99.7651 8.0075C100.529 7.09735 101.439 6.62602 102.626 6.62602C104.462 6.62602 105.567 7.73121 105.567 9.82781V15.5H103.097V10.6404C103.097 9.47025 102.577 8.8689 101.65 8.8689C100.724 8.8689 100.155 9.47025 100.155 10.6404V15.5H97.6847V10.6404C97.6847 9.47025 97.1646 8.8689 96.2382 8.8689C95.3118 8.8689 94.743 9.47025 94.743 10.6404V15.5H92.2726Z"
        fill="white"
    />
    <defs>
        <clipPath id="clip0_481_1145">
            <rect
                width="19.5032"
                height="19.5032"
                fill="white"
                transform="translate(0.748047 0.248047)"
            />
        </clipPath>
    </defs>
</svg>