<svg
    viewBox="0 0 163 34"
    fill="none"
    xmlns="http://www.w3.org/2000/svg"
>
    <g clipPath="url(#clip0_321_158)">
        <path
            d="M25.6014 16.2249C25.8598 16.6126 26.1183 17.0002 26.2475 17.6463H22.1126C22.1126 17.5171 22.1126 17.2586 22.2418 17.0002C22.371 16.7418 22.371 16.6126 22.6294 16.3541C22.7586 16.0957 23.0171 15.9665 23.2755 15.8373C23.5339 15.7081 23.9216 15.5788 24.3092 15.5788C24.8261 15.7081 25.343 15.8373 25.6014 16.2249ZM13.7135 15.3204C13.972 15.062 14.2304 14.6743 14.2304 14.1575C14.2304 13.899 14.2304 13.6406 14.1012 13.3822C13.972 13.2529 13.8427 12.9945 13.7135 12.9945C13.5843 12.8653 13.3259 12.8653 13.0675 12.7361H9.70784V15.7081H12.5506C12.9382 15.7081 13.3259 15.5788 13.7135 15.3204ZM12.6798 17.5171H9.70784V21.0059H12.6798C12.9382 21.0059 13.1967 21.0059 13.4551 20.8767C13.7135 20.8767 13.972 20.7475 14.1012 20.6183C14.2304 20.489 14.4888 20.3598 14.618 20.1014C14.7473 19.843 14.7473 19.5845 14.7473 19.3261C14.7473 18.68 14.618 18.1632 14.2304 17.9047C13.8427 17.6463 13.3259 17.5171 12.6798 17.5171ZM34.0004 6.53373V27.4667C34.0004 30.9555 31.1577 33.7983 27.6688 33.7983H6.73587C3.24705 33.7983 0.404297 30.9555 0.404297 27.4667V6.53373C0.404297 3.0449 3.24705 0.202148 6.73587 0.202148H27.6688C31.1577 0.202148 34.0004 3.0449 34.0004 6.53373ZM21.5957 12.6069H26.7643V11.3147H21.5957V12.6069ZM17.4608 19.5845C17.4608 18.8092 17.3316 18.1632 16.9439 17.5171C16.5563 17.0002 16.0394 16.6126 15.2641 16.3541C15.781 16.0957 16.2978 15.7081 16.5563 15.3204C16.8147 14.9328 16.9439 14.4159 16.9439 13.7698C16.9439 13.1237 16.8147 12.7361 16.6855 12.2192C16.4271 11.8316 16.1686 11.4439 15.9102 11.3147C15.5226 11.0563 15.1349 10.9271 14.618 10.7978C13.972 10.5394 13.4551 10.5394 12.809 10.5394H6.86509V23.2026H13.0675C13.5843 23.2026 14.2304 23.0734 14.7473 22.9441C15.2641 22.8149 15.781 22.5565 16.1686 22.2981C16.5563 22.0396 16.9439 21.652 17.2024 21.1351C17.3316 20.7475 17.4608 20.2306 17.4608 19.5845ZM22.1126 19.1969H28.7026C28.7026 18.4216 28.7026 17.7755 28.5734 17.1294C28.4441 16.4833 28.1857 15.8373 27.7981 15.4496C27.4104 14.9328 26.8935 14.5451 26.3767 14.2867C25.7306 14.0282 25.0845 13.7698 24.3092 13.7698C23.6632 13.7698 23.0171 13.899 22.371 14.1575C21.8541 14.4159 21.3373 14.8035 20.8204 15.1912C20.4328 15.5788 20.0451 16.0957 19.9159 16.7418C19.6575 17.3879 19.5282 18.0339 19.5282 18.68C19.5282 19.3261 19.6575 20.1014 19.9159 20.6183C20.1743 21.2643 20.4328 21.7812 20.8204 22.1688C21.208 22.5565 21.7249 22.9441 22.2418 23.2026C22.8879 23.461 23.5339 23.5902 24.18 23.5902C25.2137 23.5902 26.1183 23.3318 26.8935 22.8149C27.6688 22.2981 28.1857 21.5228 28.5734 20.489H26.3767C26.2475 20.7475 26.1183 21.0059 25.7306 21.2643C25.343 21.5228 24.9553 21.652 24.4384 21.652C23.7924 21.652 23.1463 21.5228 22.7586 21.1351C22.371 20.6183 22.1126 19.9722 22.1126 19.1969Z"
            fill="white"
        />
    </g>
    <path
        d="M43.3517 27V7.40226H52.4507C54.7091 7.40226 56.4169 7.98086 57.5741 9.13806C58.47 10.034 58.9179 11.1445 58.9179 12.4697V12.5257C58.9179 14.4481 58.0594 15.8573 56.3422 16.7532C57.5554 17.2198 58.47 17.8264 59.0859 18.573C59.7018 19.3196 60.0098 20.3181 60.0098 21.5686V21.6246C60.0098 23.3791 59.3565 24.7136 58.05 25.6282C56.7435 26.5427 54.9517 27 52.6747 27H43.3517ZM54.6344 13.2536V13.1976C54.6344 11.8537 53.6919 11.1818 51.8068 11.1818H47.5512V15.3253H51.5268C53.5985 15.3253 54.6344 14.6348 54.6344 13.2536ZM55.7263 21.0927V21.0367C55.7263 19.6182 54.6624 18.9089 52.5347 18.9089H47.5512V23.2204H52.6747C54.7091 23.2204 55.7263 22.5112 55.7263 21.0927ZM70.2197 27.336C67.9426 27.336 66.0668 26.6174 64.5923 25.1802C63.1178 23.7244 62.3806 21.8579 62.3806 19.5809V19.5249C62.3806 17.3411 63.0805 15.4933 64.4803 13.9815C65.8802 12.4697 67.6533 11.7138 69.7997 11.7138C72.1701 11.7138 73.9806 12.4977 75.2311 14.0655C76.4816 15.6333 77.1069 17.5651 77.1069 19.8608C77.1069 20.0475 77.0882 20.4208 77.0509 20.9807H66.6081C66.8134 21.9326 67.2333 22.6605 67.8679 23.1644C68.5025 23.6684 69.3051 23.9204 70.2757 23.9204C71.5635 23.9204 72.7767 23.4071 73.9152 22.3805L76.351 24.5363C74.8391 26.4027 72.7954 27.336 70.2197 27.336ZM66.5521 18.321H72.9633C72.8327 17.3504 72.4874 16.5759 71.9275 15.9973C71.3862 15.4187 70.6769 15.1294 69.7997 15.1294C68.9225 15.1294 68.2039 15.4187 67.644 15.9973C67.084 16.5572 66.7201 17.3318 66.5521 18.321ZM80.2784 27V6.56236H84.5339V14.1215C85.7844 12.5163 87.2496 11.7138 88.9294 11.7138C90.5532 11.7138 91.8037 12.2084 92.6809 13.1976C93.5768 14.1681 94.0248 15.5307 94.0248 17.2851V27H89.7693V18.629C89.7693 16.5945 88.9107 15.5773 87.1936 15.5773C86.3537 15.5773 85.7004 15.8386 85.2338 16.3612C84.7672 16.8838 84.5339 17.6397 84.5339 18.629V27H80.2784ZM101.977 27.28C100.503 27.28 99.2708 26.8787 98.2816 26.0761C97.3111 25.2549 96.8258 24.1257 96.8258 22.6885V22.6325C96.8258 21.0647 97.367 19.8795 98.4496 19.0769C99.5508 18.2557 101.025 17.8451 102.873 17.8451C104.086 17.8451 105.309 18.0504 106.541 18.461V18.209C106.541 16.3799 105.467 15.4653 103.321 15.4653C101.959 15.4653 100.577 15.736 99.1775 16.2772L98.1136 13.0296C99.9987 12.227 101.94 11.8257 103.937 11.8257C106.195 11.8257 107.885 12.3857 109.004 13.5056C110.087 14.5881 110.628 16.1839 110.628 18.293V27H106.513V25.3762C105.374 26.6454 103.862 27.28 101.977 27.28ZM103.265 24.3403C104.273 24.3403 105.075 24.0977 105.673 23.6124C106.289 23.1271 106.597 22.4925 106.597 21.7086V20.9527C105.757 20.5794 104.852 20.3928 103.881 20.3928C102.966 20.3928 102.248 20.5701 101.725 20.9247C101.203 21.2793 100.941 21.7926 100.941 22.4645V22.5205C100.941 23.0805 101.156 23.5284 101.585 23.8644C102.015 24.1817 102.574 24.3403 103.265 24.3403ZM114.29 27V11.9937H118.546V14.1215C119.796 12.5163 121.261 11.7138 122.941 11.7138C124.565 11.7138 125.815 12.2084 126.693 13.1976C127.589 14.1681 128.036 15.5307 128.036 17.2851V27H123.781V18.629C123.781 16.5945 122.922 15.5773 121.205 15.5773C120.365 15.5773 119.712 15.8386 119.246 16.3612C118.779 16.8838 118.546 17.6397 118.546 18.629V27H114.29ZM138.817 27.336C136.595 27.336 134.738 26.58 133.245 25.0682C131.752 23.5564 131.005 21.7273 131.005 19.5809V19.5249C131.005 17.3598 131.752 15.5213 133.245 14.0095C134.738 12.479 136.614 11.7138 138.873 11.7138C141.336 11.7138 143.333 12.5537 144.864 14.2335L142.26 17.0332C141.719 16.4732 141.187 16.0626 140.664 15.8013C140.16 15.5213 139.554 15.3813 138.845 15.3813C137.799 15.3813 136.931 15.7826 136.241 16.5852C135.55 17.3691 135.205 18.3303 135.205 19.4689V19.5249C135.205 20.7194 135.55 21.7086 136.241 22.4925C136.95 23.2764 137.874 23.6684 139.013 23.6684C140.188 23.6684 141.336 23.1364 142.456 22.0726L144.948 24.5923C144.127 25.4882 143.249 26.1694 142.316 26.636C141.383 27.1027 140.216 27.336 138.817 27.336ZM154.429 27.336C152.152 27.336 150.276 26.6174 148.801 25.1802C147.327 23.7244 146.59 21.8579 146.59 19.5809V19.5249C146.59 17.3411 147.29 15.4933 148.689 13.9815C150.089 12.4697 151.862 11.7138 154.009 11.7138C156.379 11.7138 158.19 12.4977 159.44 14.0655C160.691 15.6333 161.316 17.5651 161.316 19.8608C161.316 20.0475 161.297 20.4208 161.26 20.9807H150.817C151.022 21.9326 151.442 22.6605 152.077 23.1644C152.712 23.6684 153.514 23.9204 154.485 23.9204C155.773 23.9204 156.986 23.4071 158.124 22.3805L160.56 24.5363C159.048 26.4027 157.004 27.336 154.429 27.336ZM150.761 18.321H157.172C157.042 17.3504 156.696 16.5759 156.136 15.9973C155.595 15.4187 154.886 15.1294 154.009 15.1294C153.132 15.1294 152.413 15.4187 151.853 15.9973C151.293 16.5572 150.929 17.3318 150.761 18.321Z"
        fill="white"
    />
    <defs>
        <clipPath id="clip0_321_158">
            <rect
                width="33.5961"
                height="33.5961"
                fill="white"
                transform="translate(0.404297 0.202148)"
            />
        </clipPath>
    </defs>
</svg>