<svg
    viewBox="0 0 163 34"
    fill="none"
    xmlns="http://www.w3.org/2000/svg"
>
    <path
        d="M29.8632 0.202148C30.8532 0.202148 31.8027 0.595435 32.5028 1.29549C33.2028 1.99555 33.5961 2.94502 33.5961 3.93505V30.0654C33.5961 31.0554 33.2028 32.0049 32.5028 32.7049C31.8027 33.405 30.8532 33.7983 29.8632 33.7983H3.7329C2.74288 33.7983 1.7934 33.405 1.09334 32.7049C0.393287 32.0049 0 31.0554 0 30.0654V3.93505C0 2.94502 0.393287 1.99555 1.09334 1.29549C1.7934 0.595435 2.74288 0.202148 3.7329 0.202148H29.8632ZM28.93 29.1321V19.24C28.93 17.6262 28.2889 16.0786 27.1478 14.9375C26.0068 13.7964 24.4591 13.1553 22.8454 13.1553C21.2589 13.1553 19.4111 14.1259 18.5152 15.5817V13.5099H13.3078V29.1321H18.5152V19.9305C18.5152 18.4934 19.6724 17.3175 21.1096 17.3175C21.8026 17.3175 22.4672 17.5928 22.9573 18.0828C23.4473 18.5729 23.7226 19.2375 23.7226 19.9305V29.1321H28.93ZM7.24183 10.5796C8.07345 10.5796 8.87102 10.2493 9.45906 9.66121C10.0471 9.07316 10.3775 8.2756 10.3775 7.44398C10.3775 5.70818 8.97763 4.28968 7.24183 4.28968C6.40526 4.28968 5.60295 4.622 5.0114 5.21355C4.41986 5.8051 4.08753 6.60741 4.08753 7.44398C4.08753 9.17978 5.50603 10.5796 7.24183 10.5796ZM9.8362 29.1321V13.5099H4.66613V29.1321H9.8362Z"
        fill="white"
    />
    <path
        d="M42.9474 27V7.40226H47.2589V23.0805H57.0298V27H42.9474ZM59.9174 10.3419V6.56236H64.3969V10.3419H59.9174ZM60.0294 27V11.9937H64.2849V27H60.0294ZM68.2817 27V11.9937H72.5372V14.1215C73.7877 12.5163 75.2529 11.7138 76.9327 11.7138C78.5565 11.7138 79.807 12.2084 80.6842 13.1976C81.5801 14.1681 82.0281 15.5307 82.0281 17.2851V27H77.7726V18.629C77.7726 16.5945 76.914 15.5773 75.1969 15.5773C74.357 15.5773 73.7037 15.8386 73.2371 16.3612C72.7705 16.8838 72.5372 17.6397 72.5372 18.629V27H68.2817ZM85.725 27V6.56236H89.9805V17.4531L94.9639 11.9937H100.059L94.348 17.901L100.255 27H95.3279L91.4923 20.8407L89.9805 22.4365V27H85.725ZM108.694 27.336C106.417 27.336 104.541 26.6174 103.066 25.1802C101.592 23.7244 100.855 21.8579 100.855 19.5809V19.5249C100.855 17.3411 101.555 15.4933 102.954 13.9815C104.354 12.4697 106.127 11.7138 108.274 11.7138C110.644 11.7138 112.455 12.4977 113.705 14.0655C114.956 15.6333 115.581 17.5651 115.581 19.8608C115.581 20.0475 115.562 20.4208 115.525 20.9807H105.082C105.287 21.9326 105.707 22.6605 106.342 23.1644C106.977 23.6684 107.779 23.9204 108.75 23.9204C110.038 23.9204 111.251 23.4071 112.389 22.3805L114.825 24.5363C113.313 26.4027 111.269 27.336 108.694 27.336ZM105.026 18.321H111.437C111.307 17.3504 110.961 16.5759 110.401 15.9973C109.86 15.4187 109.151 15.1294 108.274 15.1294C107.397 15.1294 106.678 15.4187 106.118 15.9973C105.558 16.5572 105.194 17.3318 105.026 18.321ZM124.912 27.28C123.045 27.28 121.44 26.5894 120.096 25.2082C118.752 23.8084 118.08 21.9139 118.08 19.5249V19.4689C118.08 17.0798 118.743 15.1947 120.068 13.8135C121.412 12.4137 123.027 11.7138 124.912 11.7138C126.778 11.7138 128.337 12.4603 129.587 13.9535V6.56236H133.843V27H129.587V24.8442C128.411 26.4681 126.853 27.28 124.912 27.28ZM123.4 22.5205C124.109 23.2858 124.977 23.6684 126.004 23.6684C127.03 23.6684 127.889 23.2858 128.579 22.5205C129.289 21.7366 129.643 20.7381 129.643 19.5249V19.4689C129.643 18.2557 129.289 17.2665 128.579 16.5012C127.889 15.7173 127.03 15.3253 126.004 15.3253C124.977 15.3253 124.109 15.708 123.4 16.4732C122.691 17.2385 122.336 18.237 122.336 19.4689V19.5249C122.336 20.7381 122.691 21.7366 123.4 22.5205ZM138.289 27V7.40226H142.6V27H138.289ZM147.05 27V11.9937H151.305V14.1215C152.556 12.5163 154.021 11.7138 155.701 11.7138C157.325 11.7138 158.575 12.2084 159.452 13.1976C160.348 14.1681 160.796 15.5307 160.796 17.2851V27H156.541V18.629C156.541 16.5945 155.682 15.5773 153.965 15.5773C153.125 15.5773 152.472 15.8386 152.005 16.3612C151.539 16.8838 151.305 17.6397 151.305 18.629V27H147.05Z"
        fill="white"
    />
</svg>